<svg version="1.1" viewBox="0.0 0.0 220.0 220.0" fill="none" stroke="none" stroke-linecap="square" stroke-miterlimit="10" xmlns:xlink="http://www.w3.org/1999/xlink" xmlns="http://www.w3.org/2000/svg"><clipPath id="p.0"><path d="m0 0l220.0 0l0 220.0l-220.0 0l0 -220.0z" clip-rule="nonzero"/></clipPath><g clip-path="url(#p.0)"><path fill="#000000" fill-opacity="0.0" d="m0 0l220.0 0l0 220.0l-220.0 0z" fill-rule="evenodd"/><path fill="#000000" fill-opacity="0.0" d="m21.75853 66.656166l177.51181 0l0 129.51181l-177.51181 0z" fill-rule="evenodd"/><path stroke="#000000" stroke-width="8.0" stroke-linejoin="round" stroke-linecap="butt" d="m21.75853 66.656166l177.51181 0l0 129.51181l-177.51181 0z" fill-rule="evenodd"/><path fill="#cfe2f3" d="m81.1601 139.42804c0 -0.11505127 9.78653 23.083984 20.377953 17.27034c10.591431 -5.8136444 43.17061 -52.26728 43.17061 -52.15223c0 0.11505127 -32.579178 47.028877 -43.17061 52.84252c-10.591423 5.8136444 -20.377953 -17.845581 -20.377953 -17.960632z" fill-rule="evenodd"/><path stroke="#000000" stroke-width="8.0" stroke-linejoin="round" stroke-linecap="butt" d="m81.1601 139.42804c0 -0.11505127 9.78653 23.083984 20.377953 17.27034c10.591431 -5.8136444 43.17061 -52.26728 43.17061 -52.15223c0 0.11505127 -32.579178 47.028877 -43.17061 52.84252c-10.591423 5.8136444 -20.377953 -17.845581 -20.377953 -17.960632z" fill-rule="evenodd"/><path fill="#000000" d="m26.881992 35.228348l167.2649 0c1.3588257 0 2.6620026 0.5397911 3.6228333 1.5006256c0.9608307 0.9608345 1.5006256 2.2640076 1.5006256 3.6228333l0 25.6167c0 8.163452E-4 -6.5612793E-4 0.0014801025 -0.0014801025 0.0014801025l-177.51033 -0.0014801025l0 0c-8.163452E-4 0 -0.0014781952 -6.637573E-4 -0.0014781952 -0.0014801025l0.0014781952 -25.61522l0 0c0 -2.829609 2.2938519 -5.123459 5.1234627 -5.123459z" fill-rule="evenodd"/><path stroke="#000000" stroke-width="8.0" stroke-linejoin="round" stroke-linecap="butt" d="m26.881992 35.228348l167.2649 0c1.3588257 0 2.6620026 0.5397911 3.6228333 1.5006256c0.9608307 0.9608345 1.5006256 2.2640076 1.5006256 3.6228333l0 25.6167c0 8.163452E-4 -6.5612793E-4 0.0014801025 -0.0014801025 0.0014801025l-177.51033 -0.0014801025l0 0c-8.163452E-4 0 -0.0014781952 -6.637573E-4 -0.0014781952 -0.0014801025l0.0014781952 -25.61522l0 0c0 -2.829609 2.2938519 -5.123459 5.1234627 -5.123459z" fill-rule="evenodd"/><path fill="#ffffff" d="m87.44252 28.88l0 12.000002l0 0c0 6.6274147 -7.0929413 12.0 -15.842522 12.0c-8.74958 0 -15.842518 -5.3725853 -15.842518 -12.0l0 -12.000002z" fill-rule="evenodd"/><path stroke="#ffffff" stroke-width="8.0" stroke-linejoin="round" stroke-linecap="butt" d="m87.44252 28.88l0 12.000002l0 0c0 6.6274147 -7.0929413 12.0 -15.842522 12.0c-8.74958 0 -15.842518 -5.3725853 -15.842518 -12.0l0 -12.000002z" fill-rule="evenodd"/><path fill="#ffffff" d="m163.71654 28.666666l0 12.440947l0 0c0 6.870945 -7.0365295 12.440945 -15.716537 12.440945c-8.680008 0 -15.716537 -5.5699997 -15.716537 -12.440945l0 -12.440947z" fill-rule="evenodd"/><path stroke="#ffffff" stroke-width="8.0" stroke-linejoin="round" stroke-linecap="butt" d="m163.71654 28.666666l0 12.440947l0 0c0 6.870945 -7.0365295 12.440945 -15.716537 12.440945c-8.680008 0 -15.716537 -5.5699997 -15.716537 -12.440945l0 -12.440947z" fill-rule="evenodd"/><path fill="#000000" fill-opacity="0.0" d="m158.76247 26.590023l0 11.049023l0 0c0 6.102207 -4.638565 11.0490265 -10.360535 11.0490265c-5.7219543 0 -10.360519 -4.9468193 -10.360519 -11.0490265l0 -11.049023z" fill-rule="evenodd"/><path stroke="#000000" stroke-width="8.0" stroke-linejoin="round" stroke-linecap="butt" d="m158.76247 26.590023l0 11.049023l0 0c0 6.102207 -4.638565 11.0490265 -10.360535 11.0490265c-5.7219543 0 -10.360519 -4.9468193 -10.360519 -11.0490265l0 -11.049023z" fill-rule="evenodd"/><path fill="#000000" fill-opacity="0.0" d="m138.04227 26.589258l0 -11.049024l0 0c0 -6.102207 4.638565 -11.049024 10.360519 -11.049024c5.7219696 0 10.360519 4.9468164 10.360519 11.049024l0 11.049024z" fill-rule="evenodd"/><path stroke="#000000" stroke-width="8.0" stroke-linejoin="round" stroke-linecap="butt" d="m138.04227 26.589258l0 -11.049024l0 0c0 -6.102207 4.638565 -11.049024 10.360519 -11.049024c5.7219696 0 10.360519 4.9468164 10.360519 11.049024l0 11.049024z" fill-rule="evenodd"/><path fill="#000000" fill-opacity="0.0" d="m82.038 26.258919l0 10.877502l0 0c0 6.007477 -4.6388855 10.877502 -10.361244 10.877502c-5.7223587 0 -10.361248 -4.8700256 -10.361248 -10.877502l0 -10.877502z" fill-rule="evenodd"/><path stroke="#000000" stroke-width="8.0" stroke-linejoin="round" stroke-linecap="butt" d="m82.038 26.258919l0 10.877502l0 0c0 6.007477 -4.6388855 10.877502 -10.361244 10.877502c-5.7223587 0 -10.361248 -4.8700256 -10.361248 -10.877502l0 -10.877502z" fill-rule="evenodd"/><path fill="#000000" fill-opacity="0.0" d="m61.316364 26.258165l0 -10.877502l0 0c0 -6.0074787 4.6388893 -10.877502 10.361248 -10.877502c5.7223587 0 10.361244 4.8700237 10.361244 10.877502l0 10.877502z" fill-rule="evenodd"/><path stroke="#000000" stroke-width="8.0" stroke-linejoin="round" stroke-linecap="butt" d="m61.316364 26.258165l0 -10.877502l0 0c0 -6.0074787 4.6388893 -10.877502 10.361248 -10.877502c5.7223587 0 10.361244 4.8700237 10.361244 10.877502l0 10.877502z" fill-rule="evenodd"/><path fill="#ffffff" d="m65.80315 21.141733l11.748032 0l0 10.236219l-11.748032 0z" fill-rule="evenodd"/><path stroke="#ffffff" stroke-width="1.0" stroke-linejoin="round" stroke-linecap="butt" d="m65.80315 21.141733l11.748032 0l0 10.236219l-11.748032 0z" fill-rule="evenodd"/><path fill="#ffffff" d="m142.52885 21.471128l11.748032 0l0 10.236221l-11.748032 0z" fill-rule="evenodd"/><path stroke="#ffffff" stroke-width="1.0" stroke-linejoin="round" stroke-linecap="butt" d="m142.52885 21.471128l11.748032 0l0 10.236221l-11.748032 0z" fill-rule="evenodd"/></g></svg>