<svg version="1.1" viewBox="0.0 0.0 220.0 220.0" fill="none" stroke="none" stroke-linecap="square" stroke-miterlimit="10" xmlns:xlink="http://www.w3.org/1999/xlink" xmlns="http://www.w3.org/2000/svg"><clipPath id="p.0"><path d="m0 0l220.0 0l0 220.0l-220.0 0l0 -220.0z" clip-rule="nonzero"/></clipPath><g clip-path="url(#p.0)"><path fill="#000000" fill-opacity="0.0" d="m0 0l220.0 0l0 220.0l-220.0 0z" fill-rule="evenodd"/><path fill="#000000" fill-opacity="0.0" d="m26.949127 99.47835l0 105.40413l65.41308 0l0.57092285 -46.481033l37.218025 0l-0.5639343 46.848175l64.84914 0.1818695l-0.19378662 -104.48967l-81.57343 -61.4863z" fill-rule="evenodd"/><path stroke="#000000" stroke-width="8.0" stroke-linejoin="round" stroke-linecap="butt" d="m26.949127 99.47835l0 105.40413l65.41308 0l0.57092285 -46.481033l37.218025 0l-0.5639343 46.848175l64.84914 0.1818695l-0.19378662 -104.48967l-81.57343 -61.4863z" fill-rule="evenodd"/><path fill="#cfe2f3" d="m5.055142 94.72078l107.89334 -76.857025l101.993835 78.68594l-101.24134 -77.95336z" fill-rule="evenodd"/><path stroke="#000000" stroke-width="8.0" stroke-linejoin="round" stroke-linecap="butt" d="m5.055142 94.72078l107.89334 -76.857025l101.993835 78.68594l-101.24134 -77.95336z" fill-rule="evenodd"/><path fill="#000000" fill-opacity="0.0" d="m30.732561 76.05427l0 -61.48631l33.081917 0l0 38.06222z" fill-rule="evenodd"/><path stroke="#000000" stroke-width="8.0" stroke-linejoin="round" stroke-linecap="butt" d="m30.732561 76.05427l0 -61.48631l33.081917 0l0 38.06222z" fill-rule="evenodd"/></g></svg>